<?xml version="1.0" encoding="UTF-8"?>
<svg xmlns="http://www.w3.org/2000/svg" xmlns:xlink="http://www.w3.org/1999/xlink" width="375pt" height="374.999991pt" viewBox="0 0 375 374.999991" version="1.2">
<defs>
<clipPath id="clip1">
  <path d="M 37.5 100 L 337.5 100 L 337.5 295.3125 L 37.5 295.3125 Z M 37.5 100 "/>
</clipPath>
<clipPath id="clip2">
  <path d="M 57 80.0625 L 128 80.0625 L 128 91 L 57 91 Z M 57 80.0625 "/>
</clipPath>
<clipPath id="clip3">
  <path d="M 37.5 80.0625 L 48 80.0625 L 48 91 L 37.5 91 Z M 37.5 80.0625 "/>
</clipPath>
</defs>
<g id="surface1">
<g clip-path="url(#clip1)" clip-rule="nonzero">
<path style=" stroke:none;fill-rule:nonzero;fill:rgb(2.349854%,61.178589%,32.939148%);fill-opacity:1;" d="M 306.980469 260.273438 C 304.582031 246.09375 292.28125 235.242188 277.449219 235.242188 C 262.613281 235.242188 250.316406 246.09375 247.914062 260.273438 L 237.472656 260.273438 L 237.472656 145.136719 L 284.710938 145.136719 L 291.132812 155.148438 L 252.460938 155.148438 C 249.710938 155.148438 247.464844 157.398438 247.464844 160.15625 L 247.464844 205.207031 C 247.464844 207.964844 249.710938 210.214844 252.460938 210.214844 L 326.480469 210.214844 L 327.417969 211.679688 L 327.417969 240.25 L 312.425781 240.25 L 312.425781 250.261719 L 327.417969 250.261719 L 327.417969 260.273438 Z M 277.449219 285.300781 C 266.417969 285.300781 257.460938 276.324219 257.460938 265.277344 C 257.460938 254.230469 266.417969 245.253906 277.449219 245.253906 C 288.476562 245.253906 297.4375 254.230469 297.4375 265.277344 C 297.4375 276.324219 288.476562 285.300781 277.449219 285.300781 Z M 107.546875 235.242188 C 92.710938 235.242188 80.414062 246.09375 78.011719 260.273438 L 47.582031 260.273438 L 47.582031 250.261719 L 72.566406 250.261719 L 72.566406 240.25 L 47.582031 240.25 L 47.582031 110.097656 L 227.476562 110.097656 L 227.476562 120.109375 L 57.574219 120.109375 L 57.574219 130.121094 L 227.476562 130.121094 L 227.476562 240.25 L 142.527344 240.25 L 142.527344 250.261719 L 227.476562 250.261719 L 227.476562 260.273438 L 137.082031 260.273438 C 134.679688 246.09375 122.382812 235.242188 107.546875 235.242188 Z M 107.546875 285.300781 C 96.519531 285.300781 87.558594 276.324219 87.558594 265.277344 C 87.558594 254.230469 96.519531 245.253906 107.546875 245.253906 C 118.574219 245.253906 127.535156 254.230469 127.535156 265.277344 C 127.535156 276.324219 118.574219 285.300781 107.546875 285.300781 Z M 297.4375 164.964844 L 320.058594 200.203125 L 257.460938 200.203125 L 257.460938 165.160156 L 297.4375 165.160156 Z M 291.636719 137.433594 C 290.722656 135.988281 289.140625 135.125 287.441406 135.125 L 237.472656 135.125 L 237.472656 105.089844 C 237.472656 102.335938 235.226562 100.085938 232.472656 100.085938 L 42.585938 100.085938 C 39.832031 100.085938 37.585938 102.335938 37.585938 105.089844 L 37.585938 265.277344 C 37.585938 268.035156 39.832031 270.285156 42.585938 270.285156 L 78.011719 270.285156 C 80.414062 284.460938 92.710938 295.3125 107.546875 295.3125 C 122.382812 295.3125 134.679688 284.460938 137.082031 270.285156 L 247.914062 270.285156 C 250.316406 284.460938 262.613281 295.3125 277.449219 295.3125 C 292.28125 295.3125 304.582031 284.460938 306.980469 270.285156 L 332.414062 270.285156 C 335.167969 270.285156 337.414062 268.035156 337.414062 265.277344 L 337.414062 210.214844 C 337.414062 209.253906 337.140625 208.316406 336.613281 207.515625 L 291.636719 137.433594 "/>
</g>
<path style=" stroke:none;fill-rule:nonzero;fill:rgb(2.349854%,61.178589%,32.939148%);fill-opacity:1;" d="M 102.550781 270.285156 L 112.542969 270.285156 L 112.542969 260.273438 L 102.550781 260.273438 L 102.550781 270.285156 "/>
<path style=" stroke:none;fill-rule:nonzero;fill:rgb(2.349854%,61.178589%,32.939148%);fill-opacity:1;" d="M 272.449219 270.285156 L 282.445312 270.285156 L 282.445312 260.273438 L 272.449219 260.273438 L 272.449219 270.285156 "/>
<g clip-path="url(#clip2)" clip-rule="nonzero">
<path style=" stroke:none;fill-rule:nonzero;fill:rgb(2.349854%,61.178589%,32.939148%);fill-opacity:1;" d="M 57.574219 90.074219 L 127.535156 90.074219 L 127.535156 80.0625 L 57.574219 80.0625 L 57.574219 90.074219 "/>
</g>
<g clip-path="url(#clip3)" clip-rule="nonzero">
<path style=" stroke:none;fill-rule:nonzero;fill:rgb(2.349854%,61.178589%,32.939148%);fill-opacity:1;" d="M 47.582031 80.0625 L 37.585938 80.0625 L 37.585938 90.074219 L 47.582031 90.074219 L 47.582031 80.0625 "/>
</g>
</g>
</svg>
