<?xml version="1.0" encoding="UTF-8"?>
<svg xmlns="http://www.w3.org/2000/svg" xmlns:xlink="http://www.w3.org/1999/xlink" width="375pt" height="374.999991pt" viewBox="0 0 375 374.999991" version="1.2">
<defs>
<clipPath id="clip1">
  <path d="M 59 61.511719 L 312 61.511719 L 312 313.863281 L 59 313.863281 Z M 59 61.511719 "/>
</clipPath>
</defs>
<g id="surface1">
<g clip-path="url(#clip1)" clip-rule="nonzero">
<path style=" stroke:none;fill-rule:nonzero;fill:rgb(2.349854%,61.178589%,32.939148%);fill-opacity:1;" d="M 184.496094 67.152344 C 119.707031 67.152344 64.792969 120.703125 64.792969 186.957031 C 64.792969 253.246094 119.707031 306.828125 184.496094 306.828125 C 250.679688 306.828125 305.59375 253.246094 305.59375 186.957031 C 305.59375 120.703125 250.679688 67.152344 184.496094 67.152344 Z M 184.496094 61.511719 C 254.890625 61.511719 311.230469 117.882812 311.230469 186.957031 C 311.230469 257.460938 254.890625 313.863281 184.496094 313.863281 C 115.464844 313.863281 59.15625 257.460938 59.15625 186.957031 C 59.15625 117.882812 115.464844 61.511719 184.496094 61.511719 "/>
</g>
<path style=" stroke:none;fill-rule:nonzero;fill:rgb(2.349854%,61.178589%,32.939148%);fill-opacity:1;" d="M 184.496094 89.714844 C 130.972656 89.714844 88.71875 133.410156 88.71875 186.957031 C 88.71875 240.539062 130.972656 284.265625 184.496094 284.265625 C 239.414062 284.265625 281.667969 240.539062 281.667969 186.957031 C 281.667969 133.410156 239.414062 89.714844 184.496094 89.714844 Z M 184.496094 86.894531 C 240.835938 86.894531 285.875 131.980469 285.875 186.957031 C 285.875 243.359375 240.835938 287.085938 184.496094 287.085938 C 129.550781 287.085938 84.511719 243.359375 84.511719 186.957031 C 84.511719 131.980469 129.550781 86.894531 184.496094 86.894531 "/>
<path style=" stroke:none;fill-rule:nonzero;fill:rgb(2.349854%,61.178589%,32.939148%);fill-opacity:1;" d="M 8.449219 257.460938 C 5.632812 275.808594 2.816406 294.121094 16.902344 299.761719 C 2.816406 289.875 8.449219 264.527344 8.449219 257.460938 Z M 33.804688 123.519531 C 26.746094 134.800781 8.449219 134.800781 1.425781 123.519531 C 8.449219 139.046875 26.746094 139.046875 33.804688 123.519531 Z M 14.085938 137.621094 C 12.660156 179.921875 11.269531 229.257812 5.632812 271.558594 C 0 308.222656 36.621094 312.433594 30.988281 271.558594 C 25.351562 229.257812 23.929688 179.921875 22.535156 136.226562 C 29.5625 134.800781 35.195312 129.160156 35.195312 119.308594 L 32.378906 72.792969 C 32.378906 68.546875 32.378906 65.726562 28.171875 65.726562 L 28.171875 117.882812 C 28.171875 120.703125 23.929688 120.703125 23.929688 117.882812 L 23.929688 64.332031 C 22.535156 64.332031 21.109375 64.332031 19.71875 64.332031 L 19.71875 117.882812 C 19.71875 120.703125 15.476562 120.703125 15.476562 117.882812 L 15.476562 64.332031 C 14.085938 64.332031 12.660156 64.332031 11.269531 64.332031 L 11.269531 117.882812 C 11.269531 120.703125 7.027344 120.703125 7.027344 117.882812 L 7.027344 65.726562 C 2.816406 65.726562 2.816406 68.546875 2.816406 72.792969 L 0 119.308594 C 0 129.160156 5.632812 134.800781 14.085938 137.621094 "/>
<path style=" stroke:none;fill-rule:nonzero;fill:rgb(2.349854%,61.178589%,32.939148%);fill-opacity:1;" d="M 335.191406 78.433594 C 321.074219 99.566406 316.863281 134.800781 340.792969 143.261719 C 322.496094 133.410156 325.316406 99.566406 335.191406 78.433594 Z M 338.007812 257.460938 C 333.765625 275.808594 332.339844 294.121094 346.457031 299.761719 C 332.339844 289.875 338.007812 265.921875 338.007812 257.460938 Z M 352.058594 147.507812 C 364.753906 144.6875 373.203125 131.980469 373.203125 116.488281 C 374.59375 98.140625 361.9375 64.332031 347.851562 64.332031 C 333.765625 64.332031 321.074219 98.140625 321.074219 115.0625 C 321.074219 130.589844 330.949219 144.6875 342.214844 146.082031 C 342.214844 189.808594 340.792969 229.257812 335.191406 271.558594 C 329.558594 308.222656 364.753906 311.042969 359.117188 271.558594 C 353.484375 229.257812 352.058594 189.808594 352.058594 147.507812 "/>
</g>
</svg>
