<?xml version="1.0" encoding="UTF-8"?>
<svg xmlns="http://www.w3.org/2000/svg" xmlns:xlink="http://www.w3.org/1999/xlink" width="375pt" height="374.999991pt" viewBox="0 0 375 374.999991" version="1.2">
<defs>
<clipPath id="clip1">
  <path d="M 48.296875 26.769531 L 326.546875 26.769531 L 326.546875 348.292969 L 48.296875 348.292969 Z M 48.296875 26.769531 "/>
</clipPath>
</defs>
<g id="surface1">
<g clip-path="url(#clip1)" clip-rule="nonzero">
<path style=" stroke:none;fill-rule:nonzero;fill:rgb(2.349854%,61.178589%,32.939148%);fill-opacity:1;" d="M 142.929688 119.589844 C 145.371094 118.34375 147.8125 117.09375 150.253906 115.847656 C 152.4375 114.734375 153.070312 111.660156 151.882812 109.625 C 150.585938 107.402344 147.855469 106.871094 145.664062 107.992188 C 143.222656 109.242188 140.78125 110.484375 138.339844 111.730469 C 136.15625 112.847656 135.519531 115.925781 136.707031 117.957031 C 138.007812 120.179688 140.734375 120.707031 142.929688 119.589844 Z M 204.902344 141.132812 C 203.019531 143.128906 201.144531 145.128906 199.273438 147.128906 C 197.648438 148.867188 197.421875 151.867188 199.273438 153.570312 C 201.042969 155.195312 203.960938 155.421875 205.710938 153.570312 C 207.582031 151.5625 209.457031 149.574219 211.328125 147.5625 C 212.953125 145.824219 213.179688 142.824219 211.328125 141.132812 C 209.558594 139.507812 206.640625 139.277344 204.902344 141.132812 Z M 241.730469 188.871094 C 240.152344 186.632812 238.5625 184.382812 236.988281 182.15625 C 235.613281 180.214844 232.957031 179.113281 230.765625 180.519531 C 228.847656 181.757812 227.664062 184.667969 229.128906 186.746094 C 230.71875 188.984375 232.296875 191.222656 233.875 193.460938 C 235.25 195.402344 237.90625 196.503906 240.097656 195.097656 C 242.015625 193.859375 243.195312 190.949219 241.730469 188.871094 Z M 214.339844 287.328125 C 217.074219 287.304688 219.820312 287.28125 222.558594 287.257812 C 225.007812 287.238281 227.097656 285.179688 227.097656 282.703125 C 227.097656 280.261719 225.019531 278.136719 222.558594 278.160156 C 219.820312 278.179688 217.074219 278.203125 214.339844 278.238281 C 211.875 278.261719 209.785156 280.304688 209.785156 282.78125 C 209.785156 285.238281 211.875 287.351562 214.339844 287.328125 Z M 234.671875 230.882812 L 235.011719 222.671875 C 235.113281 220.214844 232.855469 218.125 230.46875 218.125 C 227.914062 218.125 226.019531 220.207031 225.917969 222.671875 L 225.578125 230.882812 C 225.476562 233.351562 227.734375 235.441406 230.117188 235.441406 C 232.671875 235.441406 234.558594 233.363281 234.671875 230.882812 Z M 148.222656 192.507812 C 146.78125 190.167969 145.335938 187.835938 143.886719 185.507812 C 142.632812 183.484375 139.769531 182.519531 137.667969 183.882812 C 135.644531 185.179688 134.695312 187.9375 136.035156 190.109375 C 137.480469 192.4375 138.925781 194.765625 140.371094 197.097656 C 141.621094 199.117188 144.492188 200.085938 146.59375 198.734375 C 148.613281 197.414062 149.5625 194.664062 148.222656 192.507812 Z M 108.847656 249.359375 C 111.109375 247.8125 113.367188 246.269531 115.636719 244.722656 C 117.59375 243.382812 118.660156 240.65625 117.261719 238.496094 C 116.007812 236.542969 113.144531 235.429688 111.046875 236.859375 C 108.777344 238.40625 106.519531 239.949219 104.257812 241.496094 C 102.296875 242.835938 101.226562 245.5625 102.625 247.722656 C 103.882812 249.675781 106.742188 250.789062 108.847656 249.359375 Z M 117.582031 180.996094 C 118.570312 181.816406 119.183594 182.964844 119.308594 184.234375 C 119.4375 185.519531 119.054688 186.757812 118.242188 187.757812 C 117.429688 188.746094 116.28125 189.359375 115.007812 189.484375 C 113.734375 189.609375 112.488281 189.222656 111.492188 188.417969 C 110.503906 187.597656 109.894531 186.449219 109.769531 185.179688 C 109.640625 183.894531 110.019531 182.65625 110.832031 181.65625 C 111.644531 180.667969 112.796875 180.054688 114.070312 179.929688 C 114.230469 179.917969 114.390625 179.90625 114.542969 179.90625 C 115.652344 179.90625 116.71875 180.28125 117.582031 180.996094 Z M 115.890625 198.527344 C 119.582031 198.164062 122.910156 196.390625 125.257812 193.519531 C 127.613281 190.65625 128.707031 187.042969 128.351562 183.347656 C 127.984375 179.65625 126.210938 176.328125 123.347656 173.976562 C 120.480469 171.625 116.875 170.523438 113.183594 170.886719 C 109.492188 171.25 106.167969 173.023438 103.816406 175.898438 C 101.460938 178.757812 100.367188 182.371094 100.726562 186.066406 C 101.089844 189.757812 102.867188 193.085938 105.734375 195.4375 C 108.238281 197.496094 111.3125 198.597656 114.511719 198.597656 C 114.96875 198.597656 115.429688 198.574219 115.890625 198.527344 Z M 317.410156 204.492188 C 316.296875 172.035156 303.242188 142.550781 282.523438 120.316406 L 278.496094 124.355469 C 280.1875 127.113281 281.402344 130.375 282.445312 134.109375 C 282.96875 135.96875 283.46875 137.941406 283.945312 139.84375 C 285.863281 147.4375 288.042969 156.058594 292.242188 159.273438 C 297.238281 163.09375 308.929688 172.046875 306.976562 191.664062 C 306.410156 197.335938 305.457031 201.300781 304.59375 204.492188 Z M 282.511719 297.757812 C 303.242188 275.535156 316.296875 246.050781 317.410156 213.582031 L 302.800781 213.582031 C 302.84375 214.933594 303.117188 216.398438 303.664062 218.25 C 304.117188 219.796875 304.652344 221.308594 305.207031 222.898438 C 308.398438 232.019531 312.019531 242.371094 299.960938 256.003906 C 296.398438 260.027344 293.457031 262.878906 291.097656 265.171875 C 285.40625 270.683594 283.695312 272.34375 282.988281 280.535156 C 282.480469 286.53125 281.390625 291.179688 279.515625 294.757812 Z M 191.988281 339.113281 C 224.421875 338 253.882812 324.933594 276.097656 304.1875 L 273.351562 301.449219 C 270.695312 303.074219 267.425781 304.109375 263.40625 304.710938 C 262.316406 304.867188 261.203125 305.015625 260.09375 305.175781 C 251.375 306.390625 242.347656 307.640625 239.203125 313.402344 C 234.230469 322.535156 223.695312 330.476562 213.035156 330.476562 C 211.253906 330.476562 209.460938 330.261719 207.6875 329.785156 C 204.714844 328.976562 201.75 327.863281 198.890625 326.785156 C 196.507812 325.898438 194.15625 325.011719 191.988281 324.375 Z M 98.792969 304.1875 C 121.003906 324.933594 150.464844 338 182.90625 339.113281 L 182.90625 324.332031 C 182.851562 324.363281 182.78125 324.386719 182.734375 324.421875 C 173.925781 330.453125 154.929688 332.453125 144.003906 321.992188 L 143.121094 321.148438 C 134.75 313.117188 126.847656 305.550781 117.257812 305.550781 C 111.570312 305.550781 106.472656 303.621094 102.351562 300.621094 Z M 57.46875 213.582031 C 58.585938 246.050781 71.644531 275.535156 92.371094 297.757812 L 96.011719 294.109375 C 93.699219 290.757812 92.246094 286.996094 91.898438 283.328125 C 90.84375 272.296875 87.480469 263.628906 82.890625 260.164062 C 81.855469 259.378906 80.757812 258.617188 79.691406 257.878906 C 73.351562 253.492188 65.457031 248.027344 67.550781 234.214844 C 68.019531 231.113281 68.609375 228.191406 69.183594 225.386719 C 70.015625 221.285156 70.789062 217.457031 71.070312 213.582031 Z M 92.316406 120.273438 C 70.789062 143.347656 58.542969 172.941406 57.464844 204.492188 L 70.652344 204.492188 C 70.359375 202.832031 69.921875 201.140625 69.320312 199.378906 C 64.761719 186.074219 62.394531 174.898438 76.480469 162.25 C 87.515625 152.355469 89.445312 148.800781 90.761719 140.882812 C 92.03125 133.257812 93.820312 127.851562 96.300781 124.253906 Z M 152.507812 180.507812 L 102.914062 130.875 C 101.878906 132.960938 100.703125 136.472656 99.71875 142.382812 C 97.949219 152.992188 94.578125 158.21875 82.542969 169.023438 C 73.367188 177.25 73.335938 183.089844 77.910156 196.425781 C 78.867188 199.234375 79.480469 201.914062 79.84375 204.492188 L 176.480469 204.492188 Z M 191.988281 103.535156 L 191.988281 198.074219 L 265.371094 124.625 C 263.316406 123.785156 260.695312 123.234375 257.253906 122.945312 C 244.234375 121.855469 236.410156 114.5625 230.121094 108.695312 C 228.691406 107.363281 227.339844 106.101562 226 104.972656 C 218.667969 98.792969 212.933594 93.957031 200.332031 100.421875 C 197.539062 101.851562 194.746094 102.894531 191.988281 103.535156 Z M 276.097656 113.890625 C 253.882812 93.148438 224.421875 80.078125 191.988281 78.960938 L 191.988281 94.105469 C 193.351562 93.652344 194.746094 93.070312 196.1875 92.335938 C 214.160156 83.113281 224.34375 91.691406 231.777344 97.957031 C 233.367188 99.292969 234.867188 100.691406 236.320312 102.046875 C 242.121094 107.460938 248.125 113.0625 258.003906 113.886719 C 264.144531 114.398438 268.675781 115.75 272.113281 117.875 Z M 191.988281 315.019531 C 195.40625 315.78125 198.832031 317.0625 202.082031 318.292969 C 204.75 319.289062 207.496094 320.324219 210.050781 321.007812 C 217.703125 323.074219 227.179688 316.496094 231.234375 309.054688 C 236.570312 299.273438 248.410156 297.625 258.84375 296.183594 C 259.933594 296.035156 261.011719 295.875 262.078125 295.726562 C 263.804688 295.464844 265.304688 295.171875 266.609375 294.695312 L 191.988281 220.015625 L 191.988281 266.371094 C 192.417969 266.65625 192.839844 266.960938 193.25 267.289062 C 199.164062 272.152344 200.015625 280.925781 195.167969 286.84375 C 194.234375 287.96875 193.15625 288.898438 191.988281 289.660156 Z M 108.875 294.089844 C 111.234375 295.535156 114.046875 296.464844 117.257812 296.464844 C 130.492188 296.464844 140.105469 305.667969 149.398438 314.585938 L 150.28125 315.429688 C 157.421875 322.265625 171.554688 321.074219 177.605469 316.929688 C 179.296875 315.78125 181.066406 315.066406 182.90625 314.679688 L 182.90625 291.808594 C 180.316406 291.523438 177.785156 290.523438 175.628906 288.75 C 169.714844 283.890625 168.863281 275.128906 173.722656 269.210938 C 176.039062 266.394531 179.285156 264.632812 182.90625 264.234375 L 182.90625 220.015625 Z M 188.152344 281.070312 C 189.820312 279.027344 189.523438 275.992188 187.480469 274.3125 C 186.617188 273.609375 185.550781 273.222656 184.449219 273.222656 C 184.292969 273.222656 184.132812 273.234375 183.972656 273.253906 C 182.703125 273.367188 181.554688 273.980469 180.738281 274.980469 C 179.058594 277.027344 179.351562 280.050781 181.398438 281.730469 C 183.441406 283.414062 186.472656 283.117188 188.152344 281.070312 Z M 102.609375 287.511719 L 176.480469 213.585938 L 80.167969 213.585938 C 79.878906 218.324219 78.976562 222.800781 78.082031 227.195312 C 77.53125 229.902344 76.964844 232.695312 76.53125 235.582031 C 75.289062 243.785156 78.890625 246.285156 84.859375 250.40625 C 86.003906 251.203125 87.175781 252.019531 88.363281 252.90625 C 97.515625 259.828125 100.171875 274.402344 100.9375 282.46875 C 101.089844 284.035156 101.671875 285.785156 102.609375 287.511719 Z M 293.730469 213.585938 L 198.402344 213.585938 L 272.589844 287.832031 C 273.214844 285.773438 273.660156 283.152344 273.953125 279.765625 C 274.941406 268.175781 278.640625 264.597656 284.773438 258.644531 C 287.03125 256.464844 289.835938 253.738281 293.160156 249.988281 C 301.6875 240.34375 299.574219 234.285156 296.636719 225.902344 C 296.066406 224.277344 295.476562 222.59375 294.957031 220.847656 C 294.125 218.050781 293.773438 215.699219 293.730469 213.585938 Z M 271.808594 131.039062 L 198.402344 204.496094 L 295.171875 204.496094 C 295.226562 204.269531 295.296875 204.054688 295.351562 203.828125 C 296.285156 200.507812 297.339844 196.75 297.929688 190.761719 C 299.28125 177.320312 292.855469 171.1875 286.726562 166.492188 C 280.003906 161.359375 277.53125 151.554688 275.144531 142.078125 C 274.667969 140.191406 274.191406 138.332031 273.703125 136.566406 C 273.113281 134.449219 272.523438 132.613281 271.808594 131.039062 Z M 326.582031 209.042969 C 326.582031 285.832031 264.167969 348.296875 187.449219 348.296875 C 110.71875 348.296875 48.300781 285.832031 48.300781 209.042969 C 48.300781 171.855469 62.773438 136.878906 89.054688 110.582031 L 92.265625 107.367188 L 182.90625 198.078125 L 182.90625 69.796875 L 187.449219 69.796875 C 264.167969 69.796875 326.582031 132.265625 326.582031 209.039062 Z M 263.042969 236.117188 C 264.304688 236.398438 265.359375 237.148438 266.039062 238.230469 C 266.722656 239.320312 266.949219 240.601562 266.664062 241.851562 C 266.382812 243.101562 265.621094 244.171875 264.542969 244.851562 C 263.464844 245.535156 262.167969 245.761719 260.921875 245.476562 C 259.683594 245.191406 258.617188 244.433594 257.933594 243.351562 C 257.242188 242.261719 257.027344 240.976562 257.3125 239.726562 C 257.59375 238.480469 258.34375 237.410156 259.433594 236.730469 C 260.207031 236.25 261.078125 235.992188 261.976562 235.992188 C 262.339844 235.992188 262.691406 236.035156 263.042969 236.117188 Z M 269.378906 252.542969 C 272.523438 250.566406 274.703125 247.488281 275.519531 243.875 C 276.335938 240.25 275.703125 236.523438 273.726562 233.390625 C 271.75 230.253906 268.675781 228.070312 265.066406 227.253906 C 261.441406 226.425781 257.730469 227.070312 254.585938 229.046875 C 251.453125 231.015625 249.273438 234.09375 248.457031 237.71875 C 247.636719 241.339844 248.273438 245.058594 250.25 248.191406 C 252.226562 251.328125 255.300781 253.507812 258.910156 254.339844 C 259.945312 254.566406 260.976562 254.691406 262.011719 254.691406 C 264.597656 254.691406 267.140625 253.953125 269.378906 252.542969 Z M 259.617188 170.6875 C 260.863281 170.96875 261.929688 171.730469 262.613281 172.8125 C 263.292969 173.902344 263.507812 175.175781 263.226562 176.433594 C 262.644531 179.015625 260.070312 180.636719 257.492188 180.046875 C 256.242188 179.765625 255.175781 179.015625 254.496094 177.921875 C 253.8125 176.84375 253.597656 175.558594 253.882812 174.308594 C 254.167969 173.0625 254.914062 171.992188 255.992188 171.3125 C 256.777344 170.824219 257.652344 170.574219 258.546875 170.574219 C 258.898438 170.574219 259.261719 170.605469 259.617188 170.6875 Z M 272.082031 178.445312 C 272.910156 174.820312 272.273438 171.105469 270.296875 167.972656 C 268.324219 164.835938 265.246094 162.640625 261.625 161.824219 C 254.167969 160.132812 246.71875 164.824219 245.027344 172.300781 C 244.199219 175.914062 244.835938 179.628906 246.808594 182.761719 C 248.796875 185.910156 251.871094 188.089844 255.484375 188.910156 C 256.515625 189.148438 257.539062 189.261719 258.558594 189.261719 C 264.894531 189.261719 270.628906 184.875 272.082031 178.445312 Z M 227.160156 120.640625 C 227.160156 123.285156 225.011719 125.4375 222.367188 125.4375 C 219.722656 125.4375 217.578125 123.285156 217.578125 120.640625 C 217.578125 117.996094 219.722656 115.84375 222.367188 115.84375 C 225.011719 115.84375 227.160156 117.996094 227.160156 120.640625 Z M 236.242188 120.640625 C 236.242188 112.984375 230.019531 106.753906 222.367188 106.753906 C 214.714844 106.753906 208.496094 112.984375 208.496094 120.640625 C 208.496094 128.296875 214.714844 134.527344 222.367188 134.527344 C 230.019531 134.527344 236.242188 128.296875 236.242188 120.640625 Z M 151.101562 83.683594 C 151.101562 86.328125 148.949219 88.480469 146.308594 88.480469 C 143.664062 88.480469 141.507812 86.328125 141.507812 83.683594 C 141.507812 81.039062 143.664062 78.882812 146.308594 78.882812 C 148.949219 78.882812 151.101562 81.039062 151.101562 83.683594 Z M 160.183594 83.683594 C 160.183594 76.027344 153.957031 69.796875 146.308594 69.796875 C 138.65625 69.796875 132.425781 76.027344 132.425781 83.683594 C 132.425781 91.335938 138.65625 97.566406 146.308594 97.566406 C 153.957031 97.566406 160.183594 91.335938 160.183594 83.683594 Z M 147.621094 55.925781 C 146.480469 55.339844 145.40625 54.785156 144.457031 54.363281 C 140.511719 52.605469 128.867188 59.164062 124.035156 65.859375 C 118.117188 74.054688 109.324219 78.652344 97.898438 79.535156 C 94.570312 79.789062 91.90625 80.699219 89.902344 81.707031 L 163.1875 155.054688 L 163.1875 61.1875 C 156.746094 60.625 151.59375 57.972656 147.621094 55.925781 Z M 79.03125 70.824219 L 83.257812 75.058594 C 86.335938 73.09375 91.003906 70.949219 97.199219 70.476562 C 105.960938 69.800781 112.335938 66.546875 116.671875 60.539062 C 121.949219 53.222656 137.84375 41.476562 148.148438 46.0625 C 149.332031 46.589844 150.519531 47.199219 151.777344 47.84375 C 155.140625 49.582031 158.859375 51.484375 163.1875 52.039062 L 163.1875 35.9375 C 131.660156 37.015625 102.082031 49.277344 79.03125 70.824219 Z M 172.269531 26.773438 L 172.269531 176.992188 L 66.132812 70.773438 L 69.339844 67.558594 C 95.621094 41.257812 130.566406 26.773438 167.726562 26.773438 Z M 285.214844 192.363281 C 291.0625 192.363281 291.074219 183.261719 285.214844 183.261719 C 279.355469 183.261719 279.347656 192.363281 285.214844 192.363281 Z M 118.46875 96.121094 C 124.324219 96.121094 124.332031 87.023438 118.46875 87.023438 C 112.621094 87.023438 112.609375 96.121094 118.46875 96.121094 Z M 285.214844 192.363281 C 291.0625 192.363281 291.074219 183.261719 285.214844 183.261719 C 279.355469 183.261719 279.347656 192.363281 285.214844 192.363281 Z M 284.453125 232.367188 C 290.300781 232.367188 290.3125 223.265625 284.453125 223.265625 C 278.597656 223.265625 278.585938 232.367188 284.453125 232.367188 Z M 214.339844 271.347656 C 220.1875 271.347656 220.199219 262.246094 214.339844 262.246094 C 208.496094 262.246094 208.484375 271.347656 214.339844 271.347656 Z M 160.203125 264.40625 C 166.046875 264.40625 166.058594 255.304688 160.203125 255.304688 C 154.347656 255.304688 154.339844 264.40625 160.203125 264.40625 Z M 146.289062 295.953125 C 152.140625 295.953125 152.152344 286.855469 146.289062 286.855469 C 140.441406 286.855469 140.433594 295.953125 146.289062 295.953125 Z M 141.285156 235.445312 C 135.421875 235.445312 135.429688 226.34375 141.285156 226.34375 C 147.144531 226.34375 147.132812 235.445312 141.285156 235.445312 "/>
</g>
</g>
</svg>
